<mxfile host="Electron" modified="2024-06-18T13:30:07.034Z" agent="Mozilla/5.0 (Windows NT 10.0; Win64; x64) AppleWebKit/537.36 (KHTML, like Gecko) draw.io/24.5.1 Chrome/124.0.6367.207 Electron/30.0.6 Safari/537.36" etag="ygBRVzgb5MpZWk-0BHXq" version="24.5.1" type="device">
  <diagram id="C5RBs43oDa-KdzZeNtuy" name="Page-1">
    <mxGraphModel dx="2200" dy="2130" grid="0" gridSize="10" guides="1" tooltips="1" connect="1" arrows="1" fold="1" page="0" pageScale="1" pageWidth="827" pageHeight="1169" background="none" math="0" shadow="0">
      <root>
        <mxCell id="WIyWlLk6GJQsqaUBKTNV-0" />
        <mxCell id="WIyWlLk6GJQsqaUBKTNV-1" parent="WIyWlLk6GJQsqaUBKTNV-0" />
        <mxCell id="ZMI2RhvpENNYQhGdIKot-3" value="" style="edgeStyle=orthogonalEdgeStyle;rounded=0;orthogonalLoop=1;jettySize=auto;html=1;fontSize=30;" parent="WIyWlLk6GJQsqaUBKTNV-1" source="ZMI2RhvpENNYQhGdIKot-1" target="ZMI2RhvpENNYQhGdIKot-2" edge="1">
          <mxGeometry relative="1" as="geometry" />
        </mxCell>
        <mxCell id="ZMI2RhvpENNYQhGdIKot-1" value="Start" style="strokeWidth=2;html=1;shape=mxgraph.flowchart.start_2;whiteSpace=wrap;fontSize=30;" parent="WIyWlLk6GJQsqaUBKTNV-1" vertex="1">
          <mxGeometry x="165" y="-446" width="70" height="70" as="geometry" />
        </mxCell>
        <mxCell id="ZMI2RhvpENNYQhGdIKot-5" value="" style="edgeStyle=orthogonalEdgeStyle;rounded=0;orthogonalLoop=1;jettySize=auto;html=1;fontSize=30;" parent="WIyWlLk6GJQsqaUBKTNV-1" source="ZMI2RhvpENNYQhGdIKot-2" target="ZMI2RhvpENNYQhGdIKot-4" edge="1">
          <mxGeometry relative="1" as="geometry" />
        </mxCell>
        <mxCell id="ZMI2RhvpENNYQhGdIKot-2" value="Unlock Scrolledtext1 for edition" style="whiteSpace=wrap;html=1;strokeWidth=2;fontSize=30;" parent="WIyWlLk6GJQsqaUBKTNV-1" vertex="1">
          <mxGeometry x="85" y="-250" width="230" height="100" as="geometry" />
        </mxCell>
        <mxCell id="ZMI2RhvpENNYQhGdIKot-7" value="" style="edgeStyle=orthogonalEdgeStyle;rounded=0;orthogonalLoop=1;jettySize=auto;html=1;fontSize=30;" parent="WIyWlLk6GJQsqaUBKTNV-1" source="ZMI2RhvpENNYQhGdIKot-4" target="ZMI2RhvpENNYQhGdIKot-6" edge="1">
          <mxGeometry relative="1" as="geometry" />
        </mxCell>
        <mxCell id="ZMI2RhvpENNYQhGdIKot-4" value="Get Scrolledtext1 text" style="rounded=1;whiteSpace=wrap;html=1;strokeWidth=2;fontSize=30;" parent="WIyWlLk6GJQsqaUBKTNV-1" vertex="1">
          <mxGeometry x="80" y="-80" width="240" height="120" as="geometry" />
        </mxCell>
        <mxCell id="ZMI2RhvpENNYQhGdIKot-9" value="" style="edgeStyle=orthogonalEdgeStyle;rounded=0;orthogonalLoop=1;jettySize=auto;html=1;fontSize=30;" parent="WIyWlLk6GJQsqaUBKTNV-1" source="ZMI2RhvpENNYQhGdIKot-6" target="ZMI2RhvpENNYQhGdIKot-8" edge="1">
          <mxGeometry relative="1" as="geometry" />
        </mxCell>
        <mxCell id="ZMI2RhvpENNYQhGdIKot-6" value="search &#39;total&#39; in the text" style="whiteSpace=wrap;html=1;rounded=1;strokeWidth=2;fontSize=30;" parent="WIyWlLk6GJQsqaUBKTNV-1" vertex="1">
          <mxGeometry x="100" y="110" width="200" height="120" as="geometry" />
        </mxCell>
        <mxCell id="ZMI2RhvpENNYQhGdIKot-11" value="" style="edgeStyle=orthogonalEdgeStyle;rounded=0;orthogonalLoop=1;jettySize=auto;html=1;fontSize=30;" parent="WIyWlLk6GJQsqaUBKTNV-1" source="ZMI2RhvpENNYQhGdIKot-8" target="ZMI2RhvpENNYQhGdIKot-10" edge="1">
          <mxGeometry relative="1" as="geometry" />
        </mxCell>
        <mxCell id="ZMI2RhvpENNYQhGdIKot-15" value="yes" style="edgeLabel;html=1;align=center;verticalAlign=middle;resizable=0;points=[];fontSize=30;" parent="ZMI2RhvpENNYQhGdIKot-11" vertex="1" connectable="0">
          <mxGeometry x="-0.1839" y="1" relative="1" as="geometry">
            <mxPoint as="offset" />
          </mxGeometry>
        </mxCell>
        <mxCell id="ZMI2RhvpENNYQhGdIKot-13" value="" style="edgeStyle=orthogonalEdgeStyle;rounded=0;orthogonalLoop=1;jettySize=auto;html=1;fontSize=30;" parent="WIyWlLk6GJQsqaUBKTNV-1" source="ZMI2RhvpENNYQhGdIKot-8" target="ZMI2RhvpENNYQhGdIKot-12" edge="1">
          <mxGeometry relative="1" as="geometry" />
        </mxCell>
        <mxCell id="ZMI2RhvpENNYQhGdIKot-14" value="no" style="edgeLabel;html=1;align=center;verticalAlign=middle;resizable=0;points=[];fontSize=30;" parent="ZMI2RhvpENNYQhGdIKot-13" vertex="1" connectable="0">
          <mxGeometry x="-0.1852" y="-2" relative="1" as="geometry">
            <mxPoint as="offset" />
          </mxGeometry>
        </mxCell>
        <mxCell id="ZMI2RhvpENNYQhGdIKot-8" value="&#39;Total&#39; found ==-1?" style="rhombus;whiteSpace=wrap;html=1;rounded=1;strokeWidth=2;fontSize=30;" parent="WIyWlLk6GJQsqaUBKTNV-1" vertex="1">
          <mxGeometry x="110" y="300" width="180" height="130" as="geometry" />
        </mxCell>
        <mxCell id="ZMI2RhvpENNYQhGdIKot-17" value="" style="edgeStyle=orthogonalEdgeStyle;rounded=0;orthogonalLoop=1;jettySize=auto;html=1;fontSize=30;" parent="WIyWlLk6GJQsqaUBKTNV-1" source="ZMI2RhvpENNYQhGdIKot-10" target="ZMI2RhvpENNYQhGdIKot-16" edge="1">
          <mxGeometry relative="1" as="geometry" />
        </mxCell>
        <mxCell id="ZMI2RhvpENNYQhGdIKot-10" value="delete contend Scrolledtext1&amp;nbsp;" style="whiteSpace=wrap;html=1;rounded=1;strokeWidth=2;fontSize=30;" parent="WIyWlLk6GJQsqaUBKTNV-1" vertex="1">
          <mxGeometry x="414" y="390" width="186" height="100" as="geometry" />
        </mxCell>
        <mxCell id="ZMI2RhvpENNYQhGdIKot-35" value="" style="edgeStyle=orthogonalEdgeStyle;rounded=0;orthogonalLoop=1;jettySize=auto;html=1;fontSize=30;" parent="WIyWlLk6GJQsqaUBKTNV-1" source="ZMI2RhvpENNYQhGdIKot-12" target="ZMI2RhvpENNYQhGdIKot-34" edge="1">
          <mxGeometry relative="1" as="geometry" />
        </mxCell>
        <mxCell id="ZMI2RhvpENNYQhGdIKot-12" value="Get selected combo3 product" style="whiteSpace=wrap;html=1;rounded=1;strokeWidth=2;fontSize=30;" parent="WIyWlLk6GJQsqaUBKTNV-1" vertex="1">
          <mxGeometry x="70" y="490" width="260" height="105" as="geometry" />
        </mxCell>
        <mxCell id="ZMI2RhvpENNYQhGdIKot-19" value="" style="edgeStyle=orthogonalEdgeStyle;rounded=0;orthogonalLoop=1;jettySize=auto;html=1;fontSize=30;" parent="WIyWlLk6GJQsqaUBKTNV-1" source="ZMI2RhvpENNYQhGdIKot-16" target="ZMI2RhvpENNYQhGdIKot-18" edge="1">
          <mxGeometry relative="1" as="geometry" />
        </mxCell>
        <mxCell id="ZMI2RhvpENNYQhGdIKot-16" value="create list new new_li&amp;nbsp;" style="whiteSpace=wrap;html=1;rounded=1;strokeWidth=2;fontSize=30;" parent="WIyWlLk6GJQsqaUBKTNV-1" vertex="1">
          <mxGeometry x="419" y="220" width="176" height="100" as="geometry" />
        </mxCell>
        <mxCell id="ZMI2RhvpENNYQhGdIKot-21" value="" style="edgeStyle=orthogonalEdgeStyle;rounded=0;orthogonalLoop=1;jettySize=auto;html=1;fontSize=30;" parent="WIyWlLk6GJQsqaUBKTNV-1" source="ZMI2RhvpENNYQhGdIKot-18" target="ZMI2RhvpENNYQhGdIKot-20" edge="1">
          <mxGeometry relative="1" as="geometry" />
        </mxCell>
        <mxCell id="ZMI2RhvpENNYQhGdIKot-18" value="Divide text into lines" style="whiteSpace=wrap;html=1;rounded=1;strokeWidth=2;fontSize=30;" parent="WIyWlLk6GJQsqaUBKTNV-1" vertex="1">
          <mxGeometry x="405" y="60" width="204" height="120" as="geometry" />
        </mxCell>
        <mxCell id="ZMI2RhvpENNYQhGdIKot-23" value="" style="edgeStyle=orthogonalEdgeStyle;rounded=0;orthogonalLoop=1;jettySize=auto;html=1;fontSize=30;" parent="WIyWlLk6GJQsqaUBKTNV-1" source="ZMI2RhvpENNYQhGdIKot-20" target="ZMI2RhvpENNYQhGdIKot-22" edge="1">
          <mxGeometry relative="1" as="geometry" />
        </mxCell>
        <mxCell id="ZMI2RhvpENNYQhGdIKot-20" value="For each line in the text" style="whiteSpace=wrap;html=1;rounded=1;strokeWidth=2;fontSize=30;" parent="WIyWlLk6GJQsqaUBKTNV-1" vertex="1">
          <mxGeometry x="414" y="-130" width="186" height="120" as="geometry" />
        </mxCell>
        <mxCell id="ZMI2RhvpENNYQhGdIKot-25" value="" style="edgeStyle=orthogonalEdgeStyle;rounded=0;orthogonalLoop=1;jettySize=auto;html=1;fontSize=30;" parent="WIyWlLk6GJQsqaUBKTNV-1" source="ZMI2RhvpENNYQhGdIKot-22" target="ZMI2RhvpENNYQhGdIKot-24" edge="1">
          <mxGeometry relative="1" as="geometry" />
        </mxCell>
        <mxCell id="ZMI2RhvpENNYQhGdIKot-26" value="si" style="edgeLabel;html=1;align=center;verticalAlign=middle;resizable=0;points=[];fontSize=30;" parent="ZMI2RhvpENNYQhGdIKot-25" vertex="1" connectable="0">
          <mxGeometry x="-0.1667" y="-1" relative="1" as="geometry">
            <mxPoint as="offset" />
          </mxGeometry>
        </mxCell>
        <mxCell id="ZMI2RhvpENNYQhGdIKot-43" value="yes" style="edgeLabel;html=1;align=center;verticalAlign=middle;resizable=0;points=[];fontSize=30;" parent="ZMI2RhvpENNYQhGdIKot-25" vertex="1" connectable="0">
          <mxGeometry x="-0.0933" y="-4" relative="1" as="geometry">
            <mxPoint as="offset" />
          </mxGeometry>
        </mxCell>
        <mxCell id="ZMI2RhvpENNYQhGdIKot-28" value="" style="edgeStyle=orthogonalEdgeStyle;rounded=0;orthogonalLoop=1;jettySize=auto;html=1;fontSize=30;" parent="WIyWlLk6GJQsqaUBKTNV-1" source="ZMI2RhvpENNYQhGdIKot-22" target="ZMI2RhvpENNYQhGdIKot-27" edge="1">
          <mxGeometry relative="1" as="geometry" />
        </mxCell>
        <mxCell id="ZMI2RhvpENNYQhGdIKot-29" value="no" style="edgeLabel;html=1;align=center;verticalAlign=middle;resizable=0;points=[];fontSize=30;" parent="ZMI2RhvpENNYQhGdIKot-28" vertex="1" connectable="0">
          <mxGeometry x="-0.2889" relative="1" as="geometry">
            <mxPoint as="offset" />
          </mxGeometry>
        </mxCell>
        <mxCell id="ZMI2RhvpENNYQhGdIKot-22" value="Does it contain &#39;total&#39;?" style="rhombus;whiteSpace=wrap;html=1;rounded=1;strokeWidth=2;fontSize=30;" parent="WIyWlLk6GJQsqaUBKTNV-1" vertex="1">
          <mxGeometry x="640" y="-140" width="270" height="140" as="geometry" />
        </mxCell>
        <mxCell id="ZMI2RhvpENNYQhGdIKot-24" value="get out of the loop" style="whiteSpace=wrap;html=1;rounded=1;strokeWidth=2;fontSize=30;" parent="WIyWlLk6GJQsqaUBKTNV-1" vertex="1">
          <mxGeometry x="1000" y="-125" width="200" height="110" as="geometry" />
        </mxCell>
        <mxCell id="ZMI2RhvpENNYQhGdIKot-31" value="" style="edgeStyle=orthogonalEdgeStyle;rounded=0;orthogonalLoop=1;jettySize=auto;html=1;fontSize=30;" parent="WIyWlLk6GJQsqaUBKTNV-1" source="ZMI2RhvpENNYQhGdIKot-27" target="ZMI2RhvpENNYQhGdIKot-30" edge="1">
          <mxGeometry relative="1" as="geometry" />
        </mxCell>
        <mxCell id="ZMI2RhvpENNYQhGdIKot-27" value="Add line to New_LI" style="whiteSpace=wrap;html=1;rounded=1;strokeWidth=2;fontSize=30;" parent="WIyWlLk6GJQsqaUBKTNV-1" vertex="1">
          <mxGeometry x="680" y="100" width="195" height="140" as="geometry" />
        </mxCell>
        <mxCell id="ZMI2RhvpENNYQhGdIKot-69" value="" style="edgeStyle=orthogonalEdgeStyle;rounded=0;orthogonalLoop=1;jettySize=auto;html=1;entryX=0.999;entryY=0.613;entryDx=0;entryDy=0;entryPerimeter=0;" parent="WIyWlLk6GJQsqaUBKTNV-1" source="ZMI2RhvpENNYQhGdIKot-30" target="ZMI2RhvpENNYQhGdIKot-12" edge="1">
          <mxGeometry relative="1" as="geometry">
            <mxPoint x="700" y="480" as="targetPoint" />
            <Array as="points">
              <mxPoint x="790" y="554" />
            </Array>
          </mxGeometry>
        </mxCell>
        <mxCell id="ZMI2RhvpENNYQhGdIKot-30" value="Reinsert New_LI lines in scrolledtext1" style="whiteSpace=wrap;html=1;rounded=1;strokeWidth=2;fontSize=30;" parent="WIyWlLk6GJQsqaUBKTNV-1" vertex="1">
          <mxGeometry x="651.25" y="280" width="252.5" height="100" as="geometry" />
        </mxCell>
        <mxCell id="ZMI2RhvpENNYQhGdIKot-37" value="" style="edgeStyle=orthogonalEdgeStyle;rounded=0;orthogonalLoop=1;jettySize=auto;html=1;fontSize=30;" parent="WIyWlLk6GJQsqaUBKTNV-1" source="ZMI2RhvpENNYQhGdIKot-34" target="ZMI2RhvpENNYQhGdIKot-36" edge="1">
          <mxGeometry relative="1" as="geometry" />
        </mxCell>
        <mxCell id="ZMI2RhvpENNYQhGdIKot-38" value="no" style="edgeLabel;html=1;align=center;verticalAlign=middle;resizable=0;points=[];fontSize=30;" parent="ZMI2RhvpENNYQhGdIKot-37" vertex="1" connectable="0">
          <mxGeometry x="-0.1167" y="-2" relative="1" as="geometry">
            <mxPoint as="offset" />
          </mxGeometry>
        </mxCell>
        <mxCell id="ZMI2RhvpENNYQhGdIKot-40" value="" style="edgeStyle=orthogonalEdgeStyle;rounded=0;orthogonalLoop=1;jettySize=auto;html=1;fontSize=30;" parent="WIyWlLk6GJQsqaUBKTNV-1" source="ZMI2RhvpENNYQhGdIKot-34" target="ZMI2RhvpENNYQhGdIKot-39" edge="1">
          <mxGeometry relative="1" as="geometry" />
        </mxCell>
        <mxCell id="ZMI2RhvpENNYQhGdIKot-41" value="yes" style="edgeLabel;html=1;align=center;verticalAlign=middle;resizable=0;points=[];fontSize=30;" parent="ZMI2RhvpENNYQhGdIKot-40" vertex="1" connectable="0">
          <mxGeometry x="-0.2296" y="2" relative="1" as="geometry">
            <mxPoint as="offset" />
          </mxGeometry>
        </mxCell>
        <mxCell id="ZMI2RhvpENNYQhGdIKot-34" value="product selected?" style="rhombus;whiteSpace=wrap;html=1;rounded=1;strokeWidth=2;fontSize=30;" parent="WIyWlLk6GJQsqaUBKTNV-1" vertex="1">
          <mxGeometry x="105" y="650" width="190" height="115" as="geometry" />
        </mxCell>
        <mxCell id="ZMI2RhvpENNYQhGdIKot-36" value="Show error message &quot;Choose a product.&quot;" style="shape=parallelogram;perimeter=parallelogramPerimeter;whiteSpace=wrap;html=1;fixedSize=1;rounded=1;strokeWidth=2;fontSize=30;" parent="WIyWlLk6GJQsqaUBKTNV-1" vertex="1">
          <mxGeometry x="550" y="651.25" width="300" height="112.5" as="geometry" />
        </mxCell>
        <mxCell id="ZMI2RhvpENNYQhGdIKot-45" value="" style="edgeStyle=orthogonalEdgeStyle;rounded=0;orthogonalLoop=1;jettySize=auto;html=1;fontSize=30;" parent="WIyWlLk6GJQsqaUBKTNV-1" source="ZMI2RhvpENNYQhGdIKot-39" target="ZMI2RhvpENNYQhGdIKot-44" edge="1">
          <mxGeometry relative="1" as="geometry" />
        </mxCell>
        <mxCell id="ZMI2RhvpENNYQhGdIKot-39" value="Get amount of entry4" style="whiteSpace=wrap;html=1;rounded=1;strokeWidth=2;fontSize=30;" parent="WIyWlLk6GJQsqaUBKTNV-1" vertex="1">
          <mxGeometry x="90" y="855" width="220" height="105" as="geometry" />
        </mxCell>
        <mxCell id="ZMI2RhvpENNYQhGdIKot-47" value="" style="edgeStyle=orthogonalEdgeStyle;rounded=0;orthogonalLoop=1;jettySize=auto;html=1;fontSize=30;exitX=0.5;exitY=1;exitDx=0;exitDy=0;" parent="WIyWlLk6GJQsqaUBKTNV-1" source="ZMI2RhvpENNYQhGdIKot-44" target="ZMI2RhvpENNYQhGdIKot-46" edge="1">
          <mxGeometry relative="1" as="geometry">
            <mxPoint x="190" y="1160" as="sourcePoint" />
          </mxGeometry>
        </mxCell>
        <mxCell id="ZMI2RhvpENNYQhGdIKot-44" value="run query sql to get mrp and stock" style="whiteSpace=wrap;html=1;rounded=1;strokeWidth=2;fontSize=30;" parent="WIyWlLk6GJQsqaUBKTNV-1" vertex="1">
          <mxGeometry x="80" y="1000" width="240" height="125" as="geometry" />
        </mxCell>
        <mxCell id="ZMI2RhvpENNYQhGdIKot-49" value="" style="edgeStyle=orthogonalEdgeStyle;rounded=0;orthogonalLoop=1;jettySize=auto;html=1;fontSize=30;" parent="WIyWlLk6GJQsqaUBKTNV-1" source="ZMI2RhvpENNYQhGdIKot-46" target="ZMI2RhvpENNYQhGdIKot-48" edge="1">
          <mxGeometry relative="1" as="geometry" />
        </mxCell>
        <mxCell id="ZMI2RhvpENNYQhGdIKot-50" value="no" style="edgeLabel;html=1;align=center;verticalAlign=middle;resizable=0;points=[];fontSize=30;" parent="ZMI2RhvpENNYQhGdIKot-49" vertex="1" connectable="0">
          <mxGeometry x="-0.1464" y="1" relative="1" as="geometry">
            <mxPoint as="offset" />
          </mxGeometry>
        </mxCell>
        <mxCell id="ZMI2RhvpENNYQhGdIKot-52" value="" style="edgeStyle=orthogonalEdgeStyle;rounded=0;orthogonalLoop=1;jettySize=auto;html=1;fontSize=30;" parent="WIyWlLk6GJQsqaUBKTNV-1" source="ZMI2RhvpENNYQhGdIKot-46" target="ZMI2RhvpENNYQhGdIKot-51" edge="1">
          <mxGeometry relative="1" as="geometry" />
        </mxCell>
        <mxCell id="ZMI2RhvpENNYQhGdIKot-53" value="yes" style="edgeLabel;html=1;align=center;verticalAlign=middle;resizable=0;points=[];fontSize=30;" parent="ZMI2RhvpENNYQhGdIKot-52" vertex="1" connectable="0">
          <mxGeometry x="-0.1424" y="-1" relative="1" as="geometry">
            <mxPoint as="offset" />
          </mxGeometry>
        </mxCell>
        <mxCell id="ZMI2RhvpENNYQhGdIKot-46" value="amount is in number?" style="rhombus;whiteSpace=wrap;html=1;rounded=1;strokeWidth=2;fontSize=30;" parent="WIyWlLk6GJQsqaUBKTNV-1" vertex="1">
          <mxGeometry x="100" y="1207.5" width="200" height="115" as="geometry" />
        </mxCell>
        <mxCell id="ZMI2RhvpENNYQhGdIKot-48" value="show message error &quot;Invalid quantity.&quot;" style="shape=parallelogram;perimeter=parallelogramPerimeter;whiteSpace=wrap;html=1;fixedSize=1;rounded=1;strokeWidth=2;fontSize=30;" parent="WIyWlLk6GJQsqaUBKTNV-1" vertex="1">
          <mxGeometry x="510" y="1212.5" width="350" height="105" as="geometry" />
        </mxCell>
        <mxCell id="ZMI2RhvpENNYQhGdIKot-55" value="" style="edgeStyle=orthogonalEdgeStyle;rounded=0;orthogonalLoop=1;jettySize=auto;html=1;fontSize=30;" parent="WIyWlLk6GJQsqaUBKTNV-1" source="ZMI2RhvpENNYQhGdIKot-51" target="ZMI2RhvpENNYQhGdIKot-54" edge="1">
          <mxGeometry relative="1" as="geometry" />
        </mxCell>
        <mxCell id="ZMI2RhvpENNYQhGdIKot-56" value="no" style="edgeLabel;html=1;align=center;verticalAlign=middle;resizable=0;points=[];fontSize=30;" parent="ZMI2RhvpENNYQhGdIKot-55" vertex="1" connectable="0">
          <mxGeometry x="-0.2975" y="3" relative="1" as="geometry">
            <mxPoint as="offset" />
          </mxGeometry>
        </mxCell>
        <mxCell id="ZMI2RhvpENNYQhGdIKot-58" value="" style="edgeStyle=orthogonalEdgeStyle;rounded=0;orthogonalLoop=1;jettySize=auto;html=1;fontSize=30;" parent="WIyWlLk6GJQsqaUBKTNV-1" source="ZMI2RhvpENNYQhGdIKot-51" target="ZMI2RhvpENNYQhGdIKot-57" edge="1">
          <mxGeometry relative="1" as="geometry" />
        </mxCell>
        <mxCell id="ZMI2RhvpENNYQhGdIKot-59" value="yes" style="edgeLabel;html=1;align=center;verticalAlign=middle;resizable=0;points=[];fontSize=30;" parent="ZMI2RhvpENNYQhGdIKot-58" vertex="1" connectable="0">
          <mxGeometry x="-0.13" relative="1" as="geometry">
            <mxPoint as="offset" />
          </mxGeometry>
        </mxCell>
        <mxCell id="ZMI2RhvpENNYQhGdIKot-51" value="Stock enough?" style="rhombus;whiteSpace=wrap;html=1;rounded=1;strokeWidth=2;fontSize=30;" parent="WIyWlLk6GJQsqaUBKTNV-1" vertex="1">
          <mxGeometry x="90" y="1486.59" width="210" height="145" as="geometry" />
        </mxCell>
        <mxCell id="ZMI2RhvpENNYQhGdIKot-54" value="Show message error&amp;nbsp;&quot;Out of stock. Check quantity.&quot;" style="shape=parallelogram;perimeter=parallelogramPerimeter;whiteSpace=wrap;html=1;fixedSize=1;rounded=1;strokeWidth=2;fontSize=30;" parent="WIyWlLk6GJQsqaUBKTNV-1" vertex="1">
          <mxGeometry x="500" y="1492.84" width="400" height="132.5" as="geometry" />
        </mxCell>
        <mxCell id="ZMI2RhvpENNYQhGdIKot-61" value="" style="edgeStyle=orthogonalEdgeStyle;rounded=0;orthogonalLoop=1;jettySize=auto;html=1;fontSize=30;" parent="WIyWlLk6GJQsqaUBKTNV-1" source="ZMI2RhvpENNYQhGdIKot-57" target="ZMI2RhvpENNYQhGdIKot-60" edge="1">
          <mxGeometry relative="1" as="geometry" />
        </mxCell>
        <mxCell id="ZMI2RhvpENNYQhGdIKot-57" value="Calculate total price" style="whiteSpace=wrap;html=1;rounded=1;strokeWidth=2;fontSize=30;" parent="WIyWlLk6GJQsqaUBKTNV-1" vertex="1">
          <mxGeometry x="50" y="1770" width="300" height="95" as="geometry" />
        </mxCell>
        <mxCell id="ZMI2RhvpENNYQhGdIKot-63" value="" style="edgeStyle=orthogonalEdgeStyle;rounded=0;orthogonalLoop=1;jettySize=auto;html=1;fontSize=30;" parent="WIyWlLk6GJQsqaUBKTNV-1" source="ZMI2RhvpENNYQhGdIKot-60" target="ZMI2RhvpENNYQhGdIKot-62" edge="1">
          <mxGeometry relative="1" as="geometry" />
        </mxCell>
        <mxCell id="ZMI2RhvpENNYQhGdIKot-60" value="Add product to the cart" style="whiteSpace=wrap;html=1;rounded=1;strokeWidth=2;fontSize=30;" parent="WIyWlLk6GJQsqaUBKTNV-1" vertex="1">
          <mxGeometry x="60" y="1934" width="280" height="85" as="geometry" />
        </mxCell>
        <mxCell id="ZMI2RhvpENNYQhGdIKot-65" value="" style="edgeStyle=orthogonalEdgeStyle;rounded=0;orthogonalLoop=1;jettySize=auto;html=1;fontSize=30;" parent="WIyWlLk6GJQsqaUBKTNV-1" source="ZMI2RhvpENNYQhGdIKot-62" target="ZMI2RhvpENNYQhGdIKot-64" edge="1">
          <mxGeometry relative="1" as="geometry" />
        </mxCell>
        <mxCell id="ZMI2RhvpENNYQhGdIKot-62" value="&lt;div style=&quot;font-size: 30px;&quot;&gt;Insert text in &lt;span style=&quot;background-color: initial; font-size: 30px;&quot;&gt;Scrolledtext1 with information &lt;/span&gt;&lt;span style=&quot;background-color: initial; font-size: 30px;&quot;&gt;of the product&lt;/span&gt;&lt;/div&gt;" style="whiteSpace=wrap;html=1;rounded=1;strokeWidth=2;fontSize=30;" parent="WIyWlLk6GJQsqaUBKTNV-1" vertex="1">
          <mxGeometry x="40" y="2100" width="320" height="205" as="geometry" />
        </mxCell>
        <mxCell id="ZMI2RhvpENNYQhGdIKot-67" value="" style="edgeStyle=orthogonalEdgeStyle;rounded=0;orthogonalLoop=1;jettySize=auto;html=1;fontSize=30;" parent="WIyWlLk6GJQsqaUBKTNV-1" source="ZMI2RhvpENNYQhGdIKot-64" target="ZMI2RhvpENNYQhGdIKot-66" edge="1">
          <mxGeometry relative="1" as="geometry" />
        </mxCell>
        <mxCell id="ZMI2RhvpENNYQhGdIKot-64" value="&lt;div style=&quot;font-size: 30px;&quot;&gt;Block scrolledtext1 &lt;span style=&quot;background-color: initial; font-size: 30px;&quot;&gt;For editing&lt;/span&gt;&lt;/div&gt;" style="whiteSpace=wrap;html=1;rounded=1;strokeWidth=2;fontSize=30;" parent="WIyWlLk6GJQsqaUBKTNV-1" vertex="1">
          <mxGeometry x="90" y="2380" width="220" height="150" as="geometry" />
        </mxCell>
        <mxCell id="ZMI2RhvpENNYQhGdIKot-66" value="End" style="ellipse;whiteSpace=wrap;html=1;rounded=1;strokeWidth=2;fontSize=30;" parent="WIyWlLk6GJQsqaUBKTNV-1" vertex="1">
          <mxGeometry x="160" y="2600" width="80" height="80" as="geometry" />
        </mxCell>
      </root>
    </mxGraphModel>
  </diagram>
</mxfile>
